<svg xmlns="http://www.w3.org/2000/svg" width="22" height="22" viewBox="0 0 22 22" fill="none">
  <mask id="mask0_28_70" style="mask-type:alpha" maskUnits="userSpaceOnUse" x="0" y="0" width="22" height="22">
    <rect width="22" height="22" fill="#D9D9D9"/>
  </mask>
  <g mask="url(#mask0_28_70)">
    <path d="M12.8333 9.07496V7.51663C13.3375 7.30274 13.8531 7.14232 14.3802 7.03538C14.9073 6.92843 15.4611 6.87496 16.0416 6.87496C16.4388 6.87496 16.8284 6.90551 17.2104 6.96663C17.5923 7.02774 17.9666 7.10413 18.3333 7.19579V8.66246C17.9666 8.52496 17.5961 8.42183 17.2218 8.35308C16.8475 8.28433 16.4541 8.24996 16.0416 8.24996C15.4611 8.24996 14.9034 8.32253 14.3687 8.46767C13.834 8.61281 13.3222 8.81524 12.8333 9.07496ZM12.8333 14.1166V12.5583C13.3375 12.3444 13.8531 12.184 14.3802 12.077C14.9073 11.9701 15.4611 11.9166 16.0416 11.9166C16.4388 11.9166 16.8284 11.9472 17.2104 12.0083C17.5923 12.0694 17.9666 12.1458 18.3333 12.2375V13.7041C17.9666 13.5666 17.5961 13.4635 17.2218 13.3948C16.8475 13.326 16.4541 13.2916 16.0416 13.2916C15.4611 13.2916 14.9034 13.3604 14.3687 13.4979C13.834 13.6354 13.3222 13.8416 12.8333 14.1166ZM12.8333 11.5958V10.0375C13.3375 9.82357 13.8531 9.66315 14.3802 9.55621C14.9073 9.44927 15.4611 9.39579 16.0416 9.39579C16.4388 9.39579 16.8284 9.42635 17.2104 9.48746C17.5923 9.54857 17.9666 9.62496 18.3333 9.71663V11.1833C17.9666 11.0458 17.5961 10.9427 17.2218 10.8739C16.8475 10.8052 16.4541 10.7708 16.0416 10.7708C15.4611 10.7708 14.9034 10.8434 14.3687 10.9885C13.834 11.1336 13.3222 11.3361 12.8333 11.5958ZM5.95829 14.6666C6.67635 14.6666 7.37531 14.7468 8.05517 14.9073C8.73503 15.0677 9.41107 15.3083 10.0833 15.6291V6.59996C9.4569 6.23329 8.79232 5.95829 8.08954 5.77496C7.38677 5.59163 6.67635 5.49996 5.95829 5.49996C5.40829 5.49996 4.86211 5.55343 4.31975 5.66038C3.77739 5.76732 3.25413 5.92774 2.74996 6.14163V15.2166C3.28468 15.0333 3.81558 14.8958 4.34267 14.8041C4.86975 14.7125 5.40829 14.6666 5.95829 14.6666ZM11.9166 15.6291C12.5888 15.3083 13.2649 15.0677 13.9448 14.9073C14.6246 14.7468 15.3236 14.6666 16.0416 14.6666C16.5916 14.6666 17.1302 14.7125 17.6573 14.8041C18.1843 14.8958 18.7152 15.0333 19.25 15.2166V6.14163C18.7458 5.92774 18.2225 5.76732 17.6802 5.66038C17.1378 5.55343 16.5916 5.49996 16.0416 5.49996C15.3236 5.49996 14.6132 5.59163 13.9104 5.77496C13.2076 5.95829 12.543 6.23329 11.9166 6.59996V15.6291ZM11 18.3333C10.2666 17.7527 9.47218 17.302 8.61663 16.9812C7.76107 16.6604 6.87496 16.5 5.95829 16.5C5.31663 16.5 4.68642 16.584 4.06767 16.752C3.44892 16.9201 2.8569 17.1569 2.29163 17.4625C1.97079 17.6305 1.66142 17.6229 1.3635 17.4395C1.06558 17.2562 0.916626 16.9888 0.916626 16.6375V5.59163C0.916626 5.42357 0.95864 5.26315 1.04267 5.11038C1.1267 4.9576 1.25274 4.84301 1.42079 4.76663C2.12357 4.39996 2.8569 4.12496 3.62079 3.94163C4.38468 3.75829 5.16385 3.66663 5.95829 3.66663C6.8444 3.66663 7.71142 3.78121 8.55933 4.01038C9.40725 4.23954 10.2208 4.58329 11 5.04163C11.7791 4.58329 12.5927 4.23954 13.4406 4.01038C14.2885 3.78121 15.1555 3.66663 16.0416 3.66663C16.8361 3.66663 17.6152 3.75829 18.3791 3.94163C19.143 4.12496 19.8763 4.39996 20.5791 4.76663C20.7472 4.84301 20.8732 4.9576 20.9573 5.11038C21.0413 5.26315 21.0833 5.42357 21.0833 5.59163V16.6375C21.0833 16.9888 20.9343 17.2562 20.6364 17.4395C20.3385 17.6229 20.0291 17.6305 19.7083 17.4625C19.143 17.1569 18.551 16.9201 17.9323 16.752C17.3135 16.584 16.6833 16.5 16.0416 16.5C15.125 16.5 14.2388 16.6604 13.3833 16.9812C12.5277 17.302 11.7333 17.7527 11 18.3333Z" fill="#1C1B1F"/>
  </g>
</svg>