<svg width="22" height="22" viewBox="0 0 22 22" fill="none" xmlns="http://www.w3.org/2000/svg">
<mask id="mask0_28_35" style="mask-type:alpha" maskUnits="userSpaceOnUse" x="0" y="0" width="22" height="22">
<rect width="22" height="22" fill="#D9D9D9"/>
</mask>
<g mask="url(#mask0_28_35)">
<path d="M16.5 11.9167V10.0834H20.1667V11.9167H16.5ZM17.6 18.3334L14.6667 16.1334L15.7667 14.6667L18.7 16.8667L17.6 18.3334ZM15.7667 7.33341L14.6667 5.86675L17.6 3.66675L18.7 5.13341L15.7667 7.33341ZM4.58334 17.4167V13.7501H3.66667C3.1625 13.7501 2.73091 13.5706 2.37188 13.2115C2.01285 12.8525 1.83334 12.4209 1.83334 11.9167V10.0834C1.83334 9.57925 2.01285 9.14765 2.37188 8.78862C2.73091 8.42959 3.1625 8.25008 3.66667 8.25008H7.33334L11.9167 5.50008V16.5001L7.33334 13.7501H6.41667V17.4167H4.58334ZM10.0833 13.2459V8.75425L7.8375 10.0834H3.66667V11.9167H7.8375L10.0833 13.2459ZM12.8333 14.0709V7.92925C13.2458 8.29591 13.5781 8.74279 13.8302 9.26987C14.0823 9.79696 14.2083 10.3737 14.2083 11.0001C14.2083 11.6265 14.0823 12.2032 13.8302 12.7303C13.5781 13.2574 13.2458 13.7042 12.8333 14.0709Z" fill="#1C1B1F"/>
</g>
</svg>
